<svg width="24" height="24" viewBox="0 0 24 24" fill="none" xmlns="http://www.w3.org/2000/svg">
<path d="M2.74463 0V24H21.258V0H2.74463ZM15.8001 21.4291H18.3909V19.6892H15.8001V21.4291ZM12.0013 8.15996C8.94954 8.15996 6.46671 10.6428 6.46671 13.6947C6.46671 16.7465 8.94954 19.2293 12.0013 19.2293C15.0531 19.2293 17.5359 16.7465 17.5359 13.6947C17.5359 10.643 15.0531 8.16016 12.0013 8.16016V8.15996ZM12.0013 17.7599C9.75974 17.7599 7.93613 15.9363 7.93613 13.6947C7.93613 11.4532 9.75974 9.62958 12.0013 9.62958C14.2429 9.62958 16.0665 11.4532 16.0665 13.6947C16.0665 15.9363 14.2429 17.7599 12.0013 17.7599ZM14.4913 3.67889H15.5932V2.57703H14.4913V3.67889ZM16.5447 3.67889H17.6465V2.57703H16.5447V3.67889ZM19.7886 22.5306H4.21405V6.29932H19.7886V22.5306ZM19.7886 4.82991H4.21405V1.46942H19.7886V4.82991Z" fill="black"/>
</svg>
