<?xml version="1.0" encoding="UTF-8"?>
<!DOCTYPE svg PUBLIC "-//W3C//DTD SVG 1.1//EN" "http://www.w3.org/Graphics/SVG/1.1/DTD/svg11.dtd">
<!-- Creator: CorelDRAW 2020 (64-Bit) -->
<svg xmlns="http://www.w3.org/2000/svg" xml:space="preserve" width="200mm" height="100mm" version="1.1" style="shape-rendering:geometricPrecision; text-rendering:geometricPrecision; image-rendering:optimizeQuality; fill-rule:evenodd; clip-rule:evenodd"
viewBox="0 0 20000 10000"
 xmlns:xlink="http://www.w3.org/1999/xlink"
 xmlns:xodm="http://www.corel.com/coreldraw/odm/2003">
 <defs>
  <style type="text/css">
   <![CDATA[
    .fil0 {fill:url(#id0)}
   ]]>
  </style>
  <linearGradient id="id0" gradientUnits="userSpaceOnUse" x1="26407.15" y1="39213.06" x2="27799.24" y2="8968.91">
   <stop offset="0" style="stop-opacity:1; stop-color:#080E78"/>
   <stop offset="1" style="stop-opacity:1; stop-color:#226FC7"/>
  </linearGradient>
 </defs>
 <g id="Слой_x0020_1">
  <metadata id="CorelCorpID_0Corel-Layer"/>
  <path class="fil0" d="M39067.38 21204.14c-728.35,-321.13 -289.92,-179.95 -861.98,-705.43 -6910.21,-6345.97 -20060.08,-5416.21 -26659.65,4161.89 -8791.2,12757.78 1148.98,31901.05 18215.68,29369.73 1902.45,-282.13 3586.66,-837.11 5157.48,-1644.22 2319.18,-1191.9 3544.48,-2428.42 4153.84,-2741.27l3.41 3771.01 6763.91 21.21c117.53,-1779.31 86.81,-3786.37 57.55,-5723.2l-26.58 0 0 -2645.68c-12.19,-943.42 -74.62,-1456.71 0,-1871.73l0 -4058.5 -6058.24 0c-3007.53,4468.89 -7840.22,9548.1 -14553.41,8459.84 -9055.29,-1467.19 -13284.23,-12959.44 -7163.08,-20173.98 419.89,-494.76 731.52,-722.02 1120.45,-1141.67 4953.39,-5344.76 16748.47,-3778.32 19516.56,5049.23l1310.16 0 3825.62 0 2001.94 0 0 -9315.97 0.24 0c-14.63,-5888.28 -108.51,-11858.74 14.39,-17719.47l-6831.94 15.36 13.65 16892.85zm51137.65 43870.99l-2231.63 0 -2024.62 -2671.53 -646.66 0 0 2671.53 -1821.5 0 0 -7274.28 2926.59 0c403.8,0 755.66,24.87 1056.07,74.86 300.17,51.45 577.17,156.79 830.52,315.29 260.18,166.54 466.96,376.49 620.34,632.03 153.37,255.06 230.18,580.35 230.18,973.91 0,556.93 -125.09,1007.3 -376.98,1354.29 -251.88,346.74 -587.17,622.04 -1009.01,827.11l2446.7 3096.79zm-2941.94 -5053.13c0,-183.61 -35.12,-340.4 -105.1,-471.83 -70.22,-131.92 -185.07,-235.31 -346.98,-307.24 -113.39,-48.04 -240.19,-77.79 -380.15,-91.44 -140.21,-13.41 -313.83,-20 -520.36,-20l-608.38 0 0 1961.22 519.62 0c254.09,0 468.91,-14.88 645.69,-46.57 176.79,-30.24 327,-96.81 450.38,-198.49 116.56,-89.98 203.36,-199.95 260.18,-326.99 56.57,-126.56 85.1,-293.59 85.1,-498.66zm-4862.93 1417.7c0,1175.8 -313.82,2101.42 -942.69,2775.4 -628.62,673.49 -1489.14,1010.48 -2581.79,1010.48 -1097.28,0 -1957.56,-342.36 -2583.01,-1024.14 -625.45,-681.78 -937.08,-1602.52 -937.08,-2761.74 0,-1167.76 311.63,-2091.43 937.08,-2770.29 625.45,-678.61 1485.73,-1018.77 2583.01,-1018.77 1092.65,0 1953.17,338.7 2581.79,1013.9 628.87,675.44 942.69,1601.06 942.69,2775.16zm-1881.48 -5.13c0,-431.84 -44.86,-801.75 -135.33,-1105.57 -88.02,-305.29 -208.24,-555.47 -358.2,-750.79 -156.55,-198.24 -333.58,-341.62 -530.36,-426.72 -198.48,-86.81 -401.85,-129.97 -613.74,-129.97 -225.07,0 -430.38,39.99 -612.05,119.97 -183.61,79.98 -358.69,222.14 -528.64,427.21 -150.21,188.49 -271.64,440.13 -363.57,752.01 -93.39,313.58 -139.97,686.9 -139.97,1118.99 0,446.96 43.16,817.11 131.44,1112.4 88.27,295.05 208.72,542.06 362.1,740.79 156.79,201.41 335.04,346.5 533.52,431.6 198.49,86.81 403.56,129.97 617.17,129.97 215.06,0 423.3,-46.82 625.2,-139.97 201.91,-91.44 376.98,-236.77 523.78,-431.84 156.54,-212.14 277,-458.91 361.86,-740.55 85.1,-281.88 126.79,-650.57 126.79,-1107.53zm-5678.81 3640.56l-5783.67 0 0 -1365.76 3369.15 -4517.89 -3188.96 0 0 -1390.63 5403.53 0 0 1390.63 -3350.87 4493.02 3550.82 0 0 1390.63zm-6374.01 -3635.43c0,1175.8 -313.83,2101.42 -941.96,2775.4 -629.11,673.49 -1489.87,1010.48 -2581.79,1010.48 -1097.53,0 -1958.05,-342.36 -2583.5,-1024.14 -625.7,-681.78 -937.33,-1602.52 -937.33,-2761.74 0,-1167.76 311.63,-2091.43 937.33,-2770.29 625.45,-678.61 1485.97,-1018.77 2583.5,-1018.77 1091.92,0 1952.68,338.7 2581.79,1013.9 628.13,675.44 941.96,1601.06 941.96,2775.16zm-1881.48 -5.13c0,-431.84 -44.87,-801.75 -134.6,-1105.57 -88.52,-305.29 -208.98,-555.47 -358.69,-750.79 -156.79,-198.24 -333.82,-341.62 -530.6,-426.72 -198.25,-86.81 -401.61,-129.97 -613.51,-129.97 -225.06,0 -430.38,39.99 -612.04,119.97 -183.61,79.98 -358.69,222.14 -528.65,427.21 -149.96,188.49 -271.88,440.13 -363.81,752.01 -93.39,313.58 -139.96,686.9 -139.96,1118.99 0,446.96 43.4,817.11 131.67,1112.4 88.76,295.05 208.49,542.06 361.86,740.79 157.04,201.41 335.28,346.5 533.53,431.6 198.73,86.81 403.8,129.97 617.4,129.97 214.83,0 423.8,-46.82 625.7,-139.97 201.66,-91.44 376.25,-236.77 523.28,-431.84 157.04,-212.14 277.01,-458.91 362.35,-740.55 84.61,-281.88 126.07,-650.57 126.07,-1107.53zm-5783.43 1412.58c0,362.1 -68.27,678.85 -204.83,954.15 -137.03,273.35 -322.35,498.66 -552.3,678.37 -275.05,214.09 -575.22,367.22 -902.45,459.15 -327.97,91.2 -745.18,136.31 -1248.71,136.31l-2915.37 0 0 -7274.28 2573.26 0c535.47,0 940.74,19.75 1215.79,61.45 276.52,39.99 535.72,125.09 777.12,255.3 260.42,139.96 455.5,328.45 583.51,562.05 128.75,235.07 193.86,505.24 193.86,812 0,353.57 -88.27,670.56 -267.01,947.32 -176.78,276.76 -423.79,480.37 -735.42,610.34l0 40.23c448.66,95.1 807.11,286.76 1077.29,578.88 270.17,291.63 405.26,685.19 405.26,1178.73zm-2341.36 -2991.69c0,-116.8 -29.75,-238.72 -90.22,-362.35 -60.23,-123.14 -153.62,-213.12 -281.88,-268.23 -119.97,-53.4 -261.89,-81.68 -426.73,-86.8 -165.32,-4.88 -410.38,-6.59 -735.67,-6.59l-126.55 0 0 1541.08 229.94 0c311.88,0 530.36,-3.41 657.4,-10 124.85,-6.82 253.35,-40.23 388.44,-103.39 144.84,-68.27 246.77,-161.66 301.87,-283.58 54.87,-119.97 83.4,-260.18 83.4,-420.14zm460.13 2961.7c0,-225.07 -44.87,-400.15 -136.31,-526.95 -92.17,-128.5 -228.72,-223.35 -410.63,-288.46 -111.68,-43.16 -263.59,-66.81 -457.2,-71.69 -194.83,-5.12 -453.3,-6.58 -780.29,-6.58l-336.75 0 0 1821.01 98.27 0c475.25,0 803.94,-3.66 987.31,-10 181.91,-6.59 366.98,-49.99 556.94,-131.92 165.32,-71.45 287,-176.3 363.56,-315.04 77.06,-138.51 115.1,-295.05 115.1,-470.37zm-8340.59 2257.97l-1759.32 0 -2813.44 -5071.42 0 5071.42 -1670.8 0 0 -7274.28 2244.56 0 2328.2 4167.74 0 -4167.74 1670.8 0 0 7274.28zm-7324.51 -3635.43c0,1175.8 -313.58,2101.42 -942.2,2775.4 -628.87,673.49 -1489.38,1010.48 -2581.79,1010.48 -1097.29,0 -1957.56,-342.36 -2583.01,-1024.14 -625.7,-681.78 -937.57,-1602.52 -937.57,-2761.74 0,-1167.76 311.87,-2091.43 937.57,-2770.29 625.45,-678.61 1485.72,-1018.77 2583.01,-1018.77 1092.41,0 1952.92,338.7 2581.79,1013.9 628.62,675.44 942.2,1601.06 942.2,2775.16zm-1881.48 -5.13c0,-431.84 -44.86,-801.75 -134.84,-1105.57 -88.27,-305.29 -208.48,-555.47 -358.45,-750.79 -156.79,-198.24 -333.57,-341.62 -530.35,-426.72 -198.73,-86.81 -401.85,-129.97 -613.75,-129.97 -225.06,0 -430.38,39.99 -612.04,119.97 -183.86,79.98 -358.69,222.14 -528.89,427.21 -149.96,188.49 -271.64,440.13 -363.33,752.01 -93.39,313.58 -140.2,686.9 -140.2,1118.99 0,446.96 43.4,817.11 131.67,1112.4 88.51,295.05 208.48,542.06 361.86,740.79 156.79,201.41 335.28,346.5 533.77,431.6 198.49,86.81 403.56,129.97 617.16,129.97 215.07,0 423.55,-46.82 625.7,-139.97 201.41,-91.44 376.24,-236.77 523.28,-431.84 156.79,-212.14 277,-458.91 362.35,-740.55 84.61,-281.88 126.06,-650.57 126.06,-1107.53zm-5336.46 3640.56l-2203.11 0 -1982.91 -2956.58 -356.74 496.95 0 2459.63 -1831.25 0 0 -7274.28 1831.25 0 0 3241.87 2326.49 -3241.87 2106.3 0 -2590.08 3375.5 2700.05 3898.78zm-7876.8 0l-1831.01 0 0 -3222.12 -2481.57 0 0 3222.12 -1831.25 0 0 -7274.28 1831.25 0 0 2661.53 2481.57 0 0 -2661.53 1831.01 0 0 7274.28zm-12299.6 0l0 -7274.28 4923.16 0 0 1390.63 -3101.91 0 0 1270.9 2861.72 0 0 1390.63 -2861.72 0 0 1831.49 3101.91 0 0 1390.63 -4923.16 0zm-1084.12 -3630.56c0,678.86 -148.5,1284.32 -443.79,1821.25 -296.75,535.48 -672.02,945.62 -1123.86,1232.62 -376.98,245.06 -788.83,401.85 -1232.62,471.84 -445.25,69.98 -916.84,104.85 -1419.16,104.85l-2274.79 0 0 -7274.28 2256.51 0c510.6,0 988.77,32.92 1434.03,98.51 447.2,64.62 865.63,221.41 1256.02,473.3 478.66,305.53 855.64,718.84 1132.4,1237.49 276.76,520.36 415.26,1132.4 415.26,1834.42zm-1881.48 -16.58c0,-476.95 -81.19,-885.63 -245.06,-1225.79 -163.13,-340.16 -416.72,-605.7 -757.12,-797.36 -245.06,-136.31 -505.49,-211.66 -775.42,-223.36 -270.17,-13.41 -593.75,-20 -970.97,-20l-32.92 0 0 4543.02 32.92 0c408.67,0 754.44,-6.59 1034.13,-21.71 280.41,-14.87 546.93,-101.68 800.77,-261.64 298.71,-188.73 525.24,-447.2 680.07,-779.07 155.58,-331.87 233.6,-735.43 233.6,-1214.09zm27543.33 -23735.28l0 406.97 1386.49 0c25.11,-106.56 9.75,-1049.5 9.75,-1238.47 0,-113.63 9.26,-192.15 9.26,-305.05l9.03 -933.43c0,-415.99 0,-831.49 0,-1247.73l9.02 -1090.22c0,-39.74 -7.07,-84.12 8.29,-121.19 5.85,-12.92 5.85,-10.73 10.48,-17.8 0,63.65 10.98,96.32 21.22,154.6 7.56,46.08 19.75,102.66 30.24,154.35l85.83 468.91c5.61,34.62 10.24,44.62 16.09,76.81l230.67 1238.22c6.34,28.53 7.81,55.84 12.44,79.98l201.9 1082.9c6.1,37.07 8.78,43.65 15.36,77.06l42.92 234.57c10.73,108.51 40.72,204.34 56.57,312.85l189.95 1011.7c4.39,32.92 -5.12,61.94 30.24,61.94l1368.44 0c45.59,0 45.59,-98.27 51.69,-133.14 26.09,-160.45 64.86,-308.7 86.56,-468.42 5.12,-39.99 11.46,-48.77 16.34,-75.84l303.58 -1637.39c12.44,-57.3 15.61,-99.73 26.34,-158.5 58.52,-314.55 123.38,-615.21 175.81,-933.18l204.58 -1089.24c20.48,-107.78 78.03,-378.68 78.03,-476.22l18.53 0c0,104.61 -9.02,191.66 -9.26,304.8 -0.25,104.85 9.26,191.42 9.26,304.8 0,209.22 -2.92,420.14 -0.73,628.87 0.73,55.35 10.24,82.66 10,147.52l0 1099.97c0,111.44 9.26,190.69 9.26,304.8l0 942.7c0,113.87 9.27,197.26 9.03,305.04 -0.25,204.58 -20.49,805.41 9.26,933.43l1332.11 0.73c98.75,0.73 54.13,-32.43 54.37,-148.75l-0.73 -423.55c-21.7,-207.02 -17.8,-400.63 -17.8,-629.84 0.24,-84.61 -9.26,-136.55 -9.02,-212.87 0.24,-73.4 0,-147.77 0,-221.66 0.24,-84.61 -10,-132.89 -9.02,-212.63 0.48,-77.05 -0.49,-154.1 0,-230.67l-17.32 -426.72c-13.41,-116.8 -1.7,-317.24 -1.22,-442.33l-18.04 -425.5c-10.97,-130.46 -1.22,-316.27 -0.24,-452.57l-9.03 -323.34c-1.7,-46.82 -9.26,-51.45 -10.24,-100.95 -1.7,-123.63 -9.51,-340.89 -1.95,-428.43 5.85,-65.59 -5.36,-232.87 -6.58,-321.38 -0.49,-49.5 -8.29,-53.89 -9.75,-100.95l0.48 -333.33c0.98,-42.19 4.39,-82.42 -37.3,-82.42l-2199.94 0c-42.92,0 -43.4,58.52 -46.57,101.19 -4.64,66.08 -23.66,127.78 -34.14,197.03l-275.54 1729.81c-6.1,31.7 -9.76,40.48 -13.17,70.23 -18.29,176.29 -62.67,354.54 -85.1,534.01l-65.84 396.48c-60.96,308.71 -92.66,623.51 -148.98,931.72l-32.92 198.73c-3.42,46.58 6.58,34.39 -19.02,64.13l-63.16 -389.9c-7.07,-56.08 -14.87,-86.07 -19.75,-137.04l-159.96 -995.6c-2.92,-19.27 -11.46,-45.6 -14.39,-68.52l-53.4 -326.02c-4.39,-26.09 -4.14,-48.03 -8.77,-74.13l-246.04 -1519.13c-2.19,-20.72 -9.02,-45.11 -13.17,-70.22l-85.34 -533.53c-5.37,-41.45 -7.32,-109.24 -47.31,-109.24l-2200.66 0c-60.48,0 -35.12,177.52 -36.58,286.51l-46.57 1931.23c0.24,120.46 -9.27,209.21 -9.03,323.58 0.25,110.7 -0.24,221.65 0,332.59 0.25,112.42 -9.99,203.37 -9.26,323.34 0.49,68.03 -9.76,96.56 -9.76,157.03l-3.65 406.73c0,11.95 5.36,46.82 3.9,73.64l-18.29 647.64c0,55.36 1.22,108.27 -4.15,162.16 -3.65,39.26 2.2,90.71 -3.9,144.11 -12.68,111.92 -10.73,211.65 -10.73,321.63zm18063.52 -5073.61l0 5378.65c0,25.12 4.63,25.6 9.26,46.57l1210.92 0c34.38,0 157.52,12.68 157.52,-18.77 0,-725.43 -37.06,-1511.33 -37.06,-2236.27 0,-725.67 -37.31,-1510.84 -37.31,-2236.76l603.26 1966.58c66.82,224.58 178.74,614.73 256.77,842.72l215.8 708.85c15.36,53.4 29.5,92.17 42.91,141.67 67.06,245.55 162.89,525.23 237.02,779.8 7.56,27.07 11.7,52.18 40.47,52.18l1950.25 0 0 -5434.49c0,-20.97 -6.1,-27.31 -27.56,-27.31l-1322.1 0c-46.09,0 -27.56,163.13 -27.56,249.21 0,100.7 9.51,166.3 9.51,267.98 -0.73,531.08 27.55,1118.5 27.55,1644.95l-0.24 416c0.24,53.64 9.75,69.98 9.75,129.23 -2.43,530.36 27.56,1104.36 27.56,1635.93 -23.9,-27.31 -114.12,-358.93 -124.6,-402.33 -5.86,-22.93 -11.22,-41.46 -19.02,-64.38l-119.73 -406.48c-9.75,-29.51 -11.95,-40.97 -20.48,-72.67 -5.85,-23.65 -11.95,-41.45 -19.27,-63.88l-278.71 -950.5c-44.13,-177.76 -126.55,-433.55 -181.41,-622.53l-38.78 -136.79c-123.38,-399.17 -239.93,-847.84 -361.86,-1227.74l-40.47 -135.33c-6.1,-21.95 -10,-38.29 -17.07,-65.84 -9.76,-38.77 -47.06,-194.83 -82.18,-194.83l-2006.08 0c-21.7,0 -37.06,15.36 -37.06,36.58zm-3447.92 5656.39c79.74,0 122.9,-8.78 203.85,-9.27l206.78 -14.39c40.48,-6.82 56.33,-11.7 97.54,-13.41l279.93 -53.4c369.91,-88.03 736.4,-280.9 936.59,-615.94 158.99,-265.55 225.56,-567.67 225.56,-883.68l0 -4075.57c0,-20.97 -6.34,-27.31 -27.56,-27.31l-1358.68 0c-44.87,0 -28.04,86.81 -28.04,128.99l0 3752.23c0,244.58 21.45,422.34 -80.96,574.98 -45.35,67.55 -94.37,118.75 -165.57,158.26 -195.8,109.97 -604.24,100.95 -756.64,-201.91 -12.92,-25.84 -15.6,-28.52 -25.11,-57.79 -53.16,-165.81 -35.12,-282.61 -35.12,-464.51l0 -3751.75c0.49,-43.16 17.8,-138.5 -27.31,-138.5l-1349.9 0c-45.36,0 -27.31,112.41 -27.31,202.88l-3.9 3820.75c9.75,66.57 4.14,164.35 11.21,228.48 4.64,38.77 -0.97,77.54 3.91,116.8 3.65,28.77 11.7,67.3 16.33,103.39 5.61,37.3 12.2,56.08 20.97,99.48 32.68,159.48 136.8,390.88 237.75,511.09l42.43 49.75c221.4,287 591.56,413.07 943.66,498.41l210.68 29.75c71.2,11.46 150.45,13.41 218.97,21.21l229.94 10.98zm9521.76 -3955.84l0 2033.39c0,301.63 19.26,628.14 98.75,852.96 21.71,61.2 41.46,110.46 67.3,163.62l41.95 78.51c140.94,258.96 450.37,489.88 723.23,589.37l178 62.18c496.95,143.13 1186.53,151.18 1690.31,8.29 137.77,-39.02 257.74,-87.54 385.03,-151.67 52.18,-26.09 89.49,-49.26 133.86,-78.76 295.78,-196.3 482.57,-467.2 560.84,-807.36l30.97 -181.42c1.7,-61.94 18.29,-52.18 18.29,-92.42l0 -1801.74 -1931.96 0c-21.46,0 -28.04,6.1 -28.04,27.31l0 767.37c0,21.21 6.58,27.31 28.04,27.31l536.21 0 0 878.32c0,213.6 -116.31,385.02 -305.05,462.08 -213.36,87.29 -538.64,68.76 -714.7,-135.58 -116.55,-135.09 -117.28,-293.1 -117.28,-474.52l0 -2384.28c0,-281.39 33.65,-550.35 281.15,-661.54 262.37,-117.78 643,-69.74 778.82,202.39 79.74,159.23 59.5,383.56 57.79,589.36 -0.24,34.39 -7.07,63.89 28.53,63.89l1386.49 0 0 -508.41c0,-43.16 -15.37,15.85 -18.78,-82.66 -1.46,-48.53 -6.58,-45.6 -14.14,-87.54 -47.8,-252.38 -135.58,-510.12 -320.65,-696.17 -21.95,-22.19 -27.56,-33.89 -46.82,-54.86l-19.51 -17.8c-1.46,-0.49 -3.66,-2.2 -5.36,-3.66 -213.61,-177.52 -279.93,-223.6 -552.79,-324.55 -70.96,-26.34 -252.38,-79.74 -326.75,-89.74l-85.83 -15.85c-180.69,-38.52 -677.64,-54.62 -868.56,-26.58 -39.99,5.86 -75.11,1.47 -114.12,6.34 -259.94,33.9 -600.09,109.73 -819.55,243.6 -62.91,38.53 -71.94,37.31 -141.67,89.49l-179.23 153.62c-1.22,0.98 -2.92,3.66 -4.39,4.63l-26.33 29.27c-1.22,1.21 -3.17,3.17 -4.63,4.63 -12.2,13.9 -17.07,19.26 -30.48,33.65 -42.19,43.65 -110.95,153.86 -141.92,209.7 -16.09,29.02 -27.55,51.94 -40.97,79.25 -25.84,52.43 -46.32,111.68 -67.3,172.88 -74.85,223.85 -98.75,547.43 -98.75,843.7zm-34564.74 -332.36c0,368.2 101.2,705.19 353.33,977.07 80.22,86.81 171.91,162.65 260.91,238.48 19.75,16.82 26.58,19.99 47.3,35.84 227.51,171.18 429.89,275.3 664.23,417.46l215.06 117.53c23.9,11.95 31.22,17.32 52.92,30 257.25,153.62 537.67,281.63 752,495.97 69.01,69.01 138.51,144.84 175.81,240.18 39.26,101.44 35.12,205.07 29.75,312.12 -1.7,37.31 -12.68,67.3 -22.67,106.8 -38.29,156.55 -145.33,284.81 -304.81,323.58 -151.91,37.06 -320.16,39.26 -467.44,-14.63 -350.4,-128.02 -295.78,-510.85 -295.78,-822.23 0,-38.04 20.73,-166.55 -27.55,-166.55l-1460.86 0 20 774.93c42.91,265.54 161.67,519.63 345.03,717.87 43.16,46.33 -33.65,-38.28 8.78,9.75l59.26 60.48c39.74,31.45 65.1,55.59 107.29,87.29l166.78 109.97c14.39,8.05 17.8,9.03 30.48,16.1 137.53,76.32 287.98,129.72 441.36,168.74 30.72,7.55 42.67,9.02 75.34,16.82l400.63 71.2 702.51 0 341.87 -55.59c151.42,-23.41 322.35,-85.59 462.32,-148.02l195.56 -108.75c26.09,-16.34 38.04,-22.19 62.18,-40.23 200.92,-150.94 351.86,-333.33 451.11,-565.23 32.43,-76.56 53.15,-153.62 68.76,-236.04 7.07,-35.84 13.17,-40.47 17.31,-84.12 32.43,-308.46 62.91,-558.4 5.37,-874.17 -40.97,-225.31 -139.48,-426.24 -288.22,-598.88l-199.71 -198c-29.75,-26.09 -52.91,-47.55 -83.88,-73.39 -18.29,-14.63 -29.26,-19.51 -49.01,-34.14 -21.71,-16.09 -22.44,-20.48 -46.09,-37.31l-696.9 -421.11c-35.11,-20 -70.22,-36.82 -108.75,-58.04 -256.03,-141.18 -524.02,-266.27 -757.62,-443.79 -194.34,-148.5 -270.9,-253.35 -270.9,-514.5 0,-321.63 251.64,-475.74 545.47,-453.79 355.52,26.58 462.32,235.55 462.32,564.73 -0.24,49.02 0,98.76 -0.24,147.77 0,46.58 -15.12,119.97 27.31,119.97l1359.41 0c0,-287.73 20.73,-588.63 -60.47,-863.93 -6.1,-22.43 -16.82,-45.6 -25.36,-66.57 -164.59,-410.38 -483.05,-628.13 -900.99,-753.95 -120.95,-36.09 -245.06,-54.63 -366.74,-76.81 -28.77,-5.37 -49.5,-1.47 -77.3,-5.86 -28.53,-4.87 -35.35,-16.33 -76.32,-16.33l-721.04 0c-38.77,0 -28.28,13.65 -74.37,18.04 -285.05,27.31 -590.34,104.85 -840.28,250.18 -146.54,84.86 -265.05,188.49 -376.49,316.75l-13.16 14.88c-144.36,167.76 -222.88,384.29 -263.35,605.7l-22.44 171.17c-1.46,71.94 -9.02,115.83 -9.02,194.59zm4843.91 4084.34l0 28.05 1479.14 0c41.21,0 38.53,-98.52 43.4,-132.65 28.78,-195.08 85.83,-517.43 106.32,-706.9l22.19 -153.62c8.29,-39.99 9.75,-32.43 13.65,-78.52 2.68,-37.79 6.1,-42.91 12.68,-79.49l187.27 -1254.32c7.8,-38.53 9.02,-38.28 11.95,-80.47l49.74 -310.9c20.97,-83.63 34.63,-227.99 45.6,-314.79l190.93 -1250.91c23.16,-213.36 75.1,-425.5 92.9,-637.4l18.29 0c0,27.31 -1.71,54.86 2.2,81.2l35.6 232.62c3.17,29.75 6.82,38.28 12.68,70.23l67.54 478.17c7.07,37.06 8.05,39.75 12.19,79.74l208.24 1399.89c4.88,29.99 3.42,53.89 9.02,83.64l336.26 2260.16c7.56,54.14 13.41,99.49 23.17,152.89 4.39,27.07 5.85,54.87 10.24,82.18 4.87,30.97 11.21,53.64 13.17,79.25l1488.4 0 -109.24 -630.09c-6.58,-39.75 -9.26,-50.23 -16.09,-85.34l-427.7 -2317.72c-5.85,-49.25 -6.83,-44.62 -15.85,-85.34l-204.34 -1117.53c-57.79,-234.33 -86.81,-533.52 -145.33,-769.81l-45.35 -259.2c-3.66,-23.9 -10.98,-56.81 -15.85,-86.32l-22.92 -124.6c-6.1,-23.9 -8.05,-15.61 -14.15,-41.21l-2449.38 0c-37.31,77.54 -190.2,1023.89 -229.21,1194.09 -45.6,196.29 -87.78,483.78 -126.31,687.15 -31.7,170.69 -74.86,342.35 -97.29,512.06 -8.29,59.99 -22.19,110.95 -33.65,170.45 -7.08,36.82 -7.32,52.91 -14.88,86.32 -6.09,25.6 -6.09,59.01 -13.41,88.51l-65.35 341.38c-34.62,231.16 -80.71,457.69 -126.8,686.41l-319.67 1722.74zm13080.86 -4112.38c0,280.9 38.28,520.6 149.72,728.6 49.74,94.12 110.7,174.34 178.98,255.3l170.2 171.18c71.2,54.86 140.94,120.21 216.53,172.15l1105.82 650.57c205.31,111.19 396.97,243.84 556.93,413.55 33.41,35.11 59.5,66.33 82.42,111.44 43.41,85.34 78.52,212.38 66.08,309.19 -14.63,112.41 -21.94,211.9 -78.76,309.92 -73.39,126.55 -222.87,205.07 -386.49,205.07 -172.88,0 -322.35,0 -458.42,-114.85 -157.52,-133.38 -160.93,-313.09 -160.93,-523.04 0,-427.21 60.71,-378.68 -175.81,-378.68l-1293.82 0c-24.14,102.9 -9.51,285.05 -9.51,397.7 0,394.54 66.81,674.47 263.1,956.84 71.93,104.12 172.4,202.14 275.79,278.71l203.6 128.99c28.04,14.63 46.09,22.68 74.13,36.82 107.78,54.13 208.97,85.1 324.8,118.51 305.77,88.75 785.17,130.45 1112.64,96.07 61.7,-6.83 137.04,-10.73 202.39,-20.24 93.39,-13.65 191.91,-23.16 284.32,-47.79l94.37 -26.58c225.55,-64.13 421.84,-152.16 606.43,-289.68l95.34 -80.96c1.71,-1.71 7.32,-6.34 9.76,-8.29l40.23 -42.92c173.86,-188 237.75,-341.38 312.12,-584.24 22.92,-75.59 48.77,-265.06 48.52,-339.67 -1.22,-297.73 29.51,-273.1 -16.09,-603.51 -24.87,-180.2 -76.57,-329.67 -170.69,-476.47l-179.22 -227.5c-1.22,-1.46 -2.93,-3.41 -4.15,-4.88l-69.74 -68.76c-128.26,-114.61 -265.54,-226.29 -411.36,-319.19 -33.65,-21.21 -60.71,-37.31 -97.05,-59.74 -20.24,-12.44 -33.16,-22.43 -50.47,-32.43 -19.02,-10.97 -33.65,-18.05 -53.4,-29.99l-199.71 -114.61c-221.16,-131.43 -457.69,-236.04 -678.12,-366.25l-149.72 -90.95c-60.47,-36.33 -133.38,-87.78 -187.76,-135.33 -10.24,-8.29 -9.51,-7.56 -20.48,-17.32l-62.91 -57.06c-106.32,-106.07 -145.09,-226.28 -145.09,-390.63 0,-189.46 82.91,-337.23 233.85,-412.82 144.11,-72.18 374.78,-71.2 519.38,1.46 287.49,143.62 244.82,462.32 244.82,771.76 102.16,24.14 1130.44,9.51 1322.1,9.51 83.64,0 55.35,-74.13 55.35,-296.03 0,-286.02 -30.96,-510.11 -123.14,-708.36l-113.14 -191.9c-198.73,-287.49 -529.62,-416.24 -851.74,-506.94 -170.68,-48.04 -578.87,-80.47 -760.54,-80.47 -102.9,0 -203.85,17.8 -295.53,18.77l-194.83 18.05c-53.89,2.92 -50.72,5.85 -96.07,14.63 -72.18,13.65 -118.75,19.75 -185.32,36.33 -121.19,30.97 -222.14,64.86 -327.48,107.29l-213.85 109.73 -184.83 138.75c-39.02,30.23 -80.47,69.98 -112.17,109.24 -33.65,42.67 -60.96,75.34 -92.66,120.45 -163.13,234.58 -238.72,513.29 -238.72,851.5zm11484.19 -12540.04c728.35,-321.14 289.93,-179.95 861.98,-705.43 6910.22,-6345.98 20060.08,-5416.21 26659.65,4161.89 8791.21,12757.78 -1148.98,31901.04 -18215.67,29369.73 -1902.45,-282.13 -3586.66,-837.11 -5157.49,-1644.23 -2319.17,-1191.89 -3544.48,-2428.41 -4153.83,-2741.26l-3.42 3771.01 -6763.91 21.21c-117.53,-1779.31 -86.81,-3786.37 -57.55,-5723.2l26.58 0 0 -2645.68c12.19,-943.43 74.62,-1456.71 0,-1871.73l0 -4058.5 6058.24 0c3007.54,4468.88 7840.22,9548.1 14553.42,8459.84 9055.28,-1467.2 13284.22,-12959.45 7163.08,-20173.98 -419.9,-494.76 -731.53,-722.02 -1120.45,-1141.67 -4953.39,-5344.76 -16748.48,-3778.32 -19516.57,5049.23l-1310.16 0 -3825.62 0 -2001.94 0 0 -9315.97 -0.24 0c14.63,-5888.28 108.51,-11858.74 -14.39,-17719.47l6831.95 15.36 -13.66 16892.85z"/>
 </g>
</svg>
