<svg width="12" height="12" viewBox="0 0 12 12" fill="none" xmlns="http://www.w3.org/2000/svg">
<path d="M10.4454 8.64027C10.0733 8.26527 9.17185 7.718 8.73451 7.49745C8.16498 7.21058 8.1181 7.18714 7.67045 7.51972C7.37185 7.74167 7.17334 7.93995 6.82388 7.86542C6.47443 7.79089 5.71506 7.37065 5.05013 6.70784C4.38521 6.04503 3.9406 5.26362 3.86584 4.91534C3.79107 4.56706 3.99263 4.37089 4.21248 4.07159C4.52232 3.64971 4.49888 3.5794 4.23404 3.00987C4.02756 2.5669 3.46435 1.67393 3.08795 1.30362C2.68529 0.905884 2.68529 0.976197 2.42584 1.08401C2.21461 1.17288 2.01197 1.28091 1.82045 1.40674C1.44545 1.65588 1.23732 1.86284 1.09177 2.17385C0.946228 2.48487 0.880837 3.21401 1.63248 4.57948C2.38412 5.94495 2.91146 6.64315 4.00295 7.73159C5.09443 8.82003 5.93373 9.40527 7.16068 10.0934C8.67849 10.9435 9.26068 10.7778 9.57263 10.6325C9.88459 10.4871 10.0925 10.2809 10.3421 9.90589C10.4682 9.71469 10.5765 9.51227 10.6655 9.3012C10.7736 9.04269 10.8439 9.04269 10.4454 8.64027Z" stroke="black" stroke-miterlimit="10"/>
</svg>
