<svg width="14" height="13" viewBox="0 0 14 13" fill="none" xmlns="http://www.w3.org/2000/svg">
<path d="M13.6425 2.38792C13.356 2.05002 12.9354 1.85516 12.4923 1.85516H3.68205C3.58216 1.85516 3.48379 1.86665 3.38749 1.88588L3.14325 0.611916C3.07522 0.256865 2.76446 0 2.403 0H0.753823C0.337524 0 0 0.337524 0 0.753823C0 1.17012 0.337524 1.50765 0.753823 1.50765H1.77978L2.32196 4.33505C2.33063 4.38027 2.34326 4.42381 2.35928 4.46546L3.33246 9.50665C3.47154 10.2273 4.10287 10.7286 4.81108 10.7286C4.90475 10.7286 4.99954 10.7199 5.0949 10.7016L12.0206 9.38245C12.6412 9.26429 13.1224 8.77167 13.2258 8.14845L13.9796 3.60968C14.0522 3.17284 13.9288 2.72601 13.6425 2.38792ZM11.7385 7.90157L4.81278 9.22076L3.68205 3.3628H12.4923L11.7385 7.90157Z" fill="#050448"/>
<path d="M3.64347 12.5349C4.0598 12.5349 4.39729 12.1974 4.39729 11.7811C4.39729 11.3648 4.0598 11.0273 3.64347 11.0273C3.22715 11.0273 2.88965 11.3648 2.88965 11.7811C2.88965 12.1974 3.22715 12.5349 3.64347 12.5349Z" fill="#050448"/>
<path d="M11.3388 12.5349C11.7551 12.5349 12.0926 12.1974 12.0926 11.7811C12.0926 11.3648 11.7551 11.0273 11.3388 11.0273C10.9225 11.0273 10.585 11.3648 10.585 11.7811C10.585 12.1974 10.9225 12.5349 11.3388 12.5349Z" fill="#050448"/>
</svg>
