<svg width="12" height="12" viewBox="0 0 12 12" fill="none" xmlns="http://www.w3.org/2000/svg">
<path d="M2.125 4.84325V10.3745C2.125 10.474 2.16451 10.5693 2.23484 10.6397C2.30516 10.71 2.40054 10.7495 2.5 10.7495H4.75V7.562C4.75 7.41281 4.80926 7.26974 4.91475 7.16425C5.02024 7.05876 5.16332 6.9995 5.3125 6.9995H7.1875C7.33668 6.9995 7.47976 7.05876 7.58525 7.16425C7.69074 7.26974 7.75 7.41281 7.75 7.562V10.7495H10C10.0995 10.7495 10.1948 10.71 10.2652 10.6397C10.3355 10.5693 10.375 10.474 10.375 10.3745V4.84325" stroke="black" stroke-linecap="round" stroke-linejoin="round"/>
<path d="M9.625 4.06981V1.3745H8.5V2.99169M11.5 5.8745L6.50523 1.09325C6.38805 0.969499 6.11406 0.968093 5.99477 1.09325L1 5.8745H11.5Z" stroke="black" stroke-linecap="round" stroke-linejoin="round"/>
</svg>
