<svg width="12" height="13" viewBox="0 0 12 13" fill="none" xmlns="http://www.w3.org/2000/svg">
<path d="M11.5 9.02101V4.35179C11.4998 4.19896 11.4596 4.04885 11.3834 3.9164C11.3071 3.78394 11.1976 3.67377 11.0655 3.59683L6.90926 1.178C6.70901 1.06142 6.48144 1 6.24973 1C6.01801 1 5.79044 1.06142 5.5902 1.178L1.43449 3.59683C1.30245 3.67377 1.19286 3.78394 1.11663 3.9164C1.0404 4.04885 1.00019 4.19896 1 4.35179V9.02101C1.00009 9.17392 1.04025 9.32415 1.11649 9.45671C1.19272 9.58927 1.30237 9.69953 1.43449 9.77652L5.59074 12.1953C5.79105 12.3118 6.0186 12.3731 6.25027 12.3731C6.48195 12.3731 6.7095 12.3118 6.9098 12.1953L11.0661 9.77652C11.1981 9.69946 11.3076 9.58917 11.3837 9.45661C11.4599 9.32406 11.5 9.17387 11.5 9.02101Z" stroke="white" stroke-linecap="round" stroke-linejoin="round"/>
<path d="M6.25 12.3739V6.90515M1.13672 3.89734L6.25 6.90515L11.3633 3.89734H1.13672Z" stroke="white" stroke-linecap="round" stroke-linejoin="round"/>
</svg>
