<svg width="24" height="20" viewBox="0 0 24 20" fill="none" xmlns="http://www.w3.org/2000/svg">
<path d="M23.4 13.2H22.8V9.14625C22.8 8.67 22.6088 8.2125 22.2713 7.875L18.525 4.12875C18.1875 3.79125 17.73 3.6 17.2538 3.6H15.6V1.8C15.6 0.80625 14.7938 0 13.8 0H1.8C0.80625 0 0 0.80625 0 1.8V13.8C0 14.7938 0.80625 15.6 1.8 15.6H2.4C2.4 17.5875 4.0125 19.2 6 19.2C7.9875 19.2 9.6 17.5875 9.6 15.6H14.4C14.4 17.5875 16.0125 19.2 18 19.2C19.9875 19.2 21.6 17.5875 21.6 15.6H23.4C23.73 15.6 24 15.33 24 15V13.8C24 13.47 23.73 13.2 23.4 13.2ZM6 17.4C5.00625 17.4 4.2 16.5938 4.2 15.6C4.2 14.6063 5.00625 13.8 6 13.8C6.99375 13.8 7.8 14.6063 7.8 15.6C7.8 16.5938 6.99375 17.4 6 17.4ZM18 17.4C17.0063 17.4 16.2 16.5938 16.2 15.6C16.2 14.6063 17.0063 13.8 18 13.8C18.9938 13.8 19.8 14.6063 19.8 15.6C19.8 16.5938 18.9938 17.4 18 17.4ZM21 9.6H15.6V5.4H17.2538L21 9.14625V9.6Z" fill="white"/>
</svg>
