<svg width="14" height="13" viewBox="0 0 14 13" fill="none" xmlns="http://www.w3.org/2000/svg">
<path d="M13.6583 0.341836C13.2027 -0.113752 12.4642 -0.113752 12.0086 0.341836L6.41673 5.93314L4.32487 3.84187C3.86987 3.38628 3.13019 3.38628 2.67519 3.84187C2.2196 4.29746 2.2196 5.03597 2.67519 5.49156L5.59188 8.40825C5.81939 8.63634 6.11806 8.75009 6.41673 8.75009C6.7154 8.75009 7.01407 8.63634 7.24157 8.40825L13.6583 1.99152C14.1139 1.53593 14.1139 0.797424 13.6583 0.341836Z" fill="white"/>
<path d="M12.2501 5.83339C11.9275 5.83339 11.6668 6.09473 11.6668 6.41673V10.5001C11.6668 11.1435 11.1435 11.6668 10.5001 11.6668H2.33336C1.68993 11.6668 1.16668 11.1435 1.16668 10.5001V2.33336C1.16668 1.68993 1.68993 1.16668 2.33336 1.16668H8.75009C9.07268 1.16668 9.33343 0.905343 9.33343 0.583339C9.33343 0.261336 9.07268 0 8.75009 0H2.33336C1.05001 0 0 1.05001 0 2.33336V10.5001C0 11.7835 1.05001 12.8335 2.33336 12.8335H10.5001C11.7835 12.8335 12.8335 11.7835 12.8335 10.5001V6.41673C12.8335 6.09473 12.5727 5.83339 12.2501 5.83339Z" fill="white"/>
</svg>
