<svg width="30" height="31" viewBox="0 0 30 31" fill="none" xmlns="http://www.w3.org/2000/svg">
<path d="M15.0066 7.44193C10.7477 7.44193 7.31239 10.8772 7.31239 15.1361C7.31239 19.3951 10.7477 22.8303 15.0066 22.8303C19.2655 22.8303 22.7008 19.3951 22.7008 15.1361C22.7008 10.8772 19.2655 7.44193 15.0066 7.44193ZM15.0066 20.1384C12.2544 20.1384 10.0044 17.8951 10.0044 15.1361C10.0044 12.3772 12.2477 10.1339 15.0066 10.1339C17.7655 10.1339 20.0088 12.3772 20.0088 15.1361C20.0088 17.8951 17.7588 20.1384 15.0066 20.1384ZM24.8102 7.1272C24.8102 8.12496 24.0066 8.92184 23.0155 8.92184C22.0178 8.92184 21.2209 8.11827 21.2209 7.1272C21.2209 6.13613 22.0245 5.33255 23.0155 5.33255C24.0066 5.33255 24.8102 6.13613 24.8102 7.1272ZM29.9061 8.94863C29.7923 6.54461 29.2432 4.41514 27.482 2.66068C25.7276 0.906215 23.5981 0.357108 21.1941 0.236572C18.7164 0.0959473 11.2901 0.0959473 8.8124 0.236572C6.41507 0.350412 4.28561 0.899519 2.52445 2.65398C0.763288 4.40845 0.220877 6.53791 0.100342 8.94193C-0.0402832 11.4196 -0.0402832 18.8459 0.100342 21.3236C0.214181 23.7276 0.763288 25.8571 2.52445 27.6116C4.28561 29.366 6.40838 29.9151 8.8124 30.0357C11.2901 30.1763 18.7164 30.1763 21.1941 30.0357C23.5981 29.9218 25.7276 29.3727 27.482 27.6116C29.2365 25.8571 29.7856 23.7276 29.9061 21.3236C30.0468 18.8459 30.0468 11.4263 29.9061 8.94863ZM26.7053 23.9821C26.1829 25.2946 25.1718 26.3058 23.8526 26.8348C21.8771 27.6183 17.1896 27.4375 15.0066 27.4375C12.8236 27.4375 8.12936 27.6116 6.16061 26.8348C4.84811 26.3125 3.83695 25.3013 3.30793 23.9821C2.52445 22.0067 2.70525 17.3192 2.70525 15.1361C2.70525 12.9531 2.53115 8.25889 3.30793 6.29014C3.83025 4.97764 4.84141 3.96648 6.16061 3.43746C8.13606 2.65398 12.8236 2.83479 15.0066 2.83479C17.1896 2.83479 21.8838 2.66068 23.8526 3.43746C25.1651 3.95979 26.1762 4.97095 26.7053 6.29014C27.4887 8.26559 27.3079 12.9531 27.3079 15.1361C27.3079 17.3192 27.4887 22.0134 26.7053 23.9821Z" fill="black"/>
</svg>
