<svg width="24" height="24" viewBox="0 0 24 24" fill="none" xmlns="http://www.w3.org/2000/svg">
<path d="M3.80999 7.08994C4.47273 7.08994 5.00999 6.55268 5.00999 5.88994C5.00999 5.2272 4.47273 4.68994 3.80999 4.68994C3.14724 4.68994 2.60999 5.2272 2.60999 5.88994C2.60999 6.55268 3.14724 7.08994 3.80999 7.08994Z" fill="white"/>
<path d="M21.39 5.13989H7.82001V6.63989H21.39V5.13989Z" fill="white"/>
<path d="M3.80999 13.2C4.47273 13.2 5.00999 12.6628 5.00999 12C5.00999 11.3373 4.47273 10.8 3.80999 10.8C3.14724 10.8 2.60999 11.3373 2.60999 12C2.60999 12.6628 3.14724 13.2 3.80999 13.2Z" fill="white"/>
<path d="M21.39 11.25H7.82001V12.75H21.39V11.25Z" fill="white"/>
<path d="M3.80999 19.3099C4.47273 19.3099 5.00999 18.7727 5.00999 18.1099C5.00999 17.4472 4.47273 16.9099 3.80999 16.9099C3.14724 16.9099 2.60999 17.4472 2.60999 18.1099C2.60999 18.7727 3.14724 19.3099 3.80999 19.3099Z" fill="white"/>
<path d="M21.39 17.3599H7.82001V18.8599H21.39V17.3599Z" fill="white"/>
</svg>
