<svg width="14" height="15" viewBox="0 0 14 15" fill="none" xmlns="http://www.w3.org/2000/svg">
<path d="M6.99996 6.87273C8.90905 6.87273 10.4363 5.34545 10.4363 3.43636C10.4363 1.52727 8.90905 0 6.99996 0C5.09087 0 3.5636 1.52727 3.5636 3.43636C3.5636 5.34545 5.09087 6.87273 6.99996 6.87273ZM6.99996 1.27273C8.20905 1.27273 9.1636 2.22727 9.1636 3.43636C9.1636 4.64545 8.20905 5.6 6.99996 5.6C5.79087 5.6 4.83633 4.64545 4.83633 3.43636C4.83633 2.22727 5.79087 1.27273 6.99996 1.27273Z" fill="#050448"/>
<path d="M8.4 7.89093H5.6C2.48182 7.89093 0 10.4364 0 13.4909C0 13.8727 0.254545 14.1273 0.636364 14.1273C1.01818 14.1273 1.27273 13.8727 1.27273 13.4909C1.27273 11.0727 3.24545 9.16366 5.6 9.16366H8.4C10.8182 9.16366 12.7273 11.1364 12.7273 13.4909C12.7273 13.8727 12.9818 14.1273 13.3636 14.1273C13.7455 14.1273 14 13.8727 14 13.4909C14 10.4364 11.4545 7.89093 8.4 7.89093Z" fill="#050448"/>
</svg>
